<?xml version="1.0" encoding="utf-8"?>
<svg viewBox="0 0 274 45" xmlns="http://www.w3.org/2000/svg">
  <g data-v-0dd9719b="" fill="#000000"
    transform="matrix(0.9887010455131532, 0, 0, 1, 5.848813056945801, 2.9915709495544434)" style="">
    <g transform="translate(0,0)">
      <g>
        <rect fill="#000000" fill-opacity="0" stroke-width="2" x="0" y="0" width="38.39999999999998"
          height="39.0168565012853" />
        <svg filter="url(#colors1627487011)" x="0" y="0" width="38.39999999999998" height="39.0168565012853"
          filtersec="colorsf4272635234" style="overflow: visible;">
          <svg version="1.1" xmlns="http://www.w3.org/2000/svg" x="0px" y="0px"
            viewBox="0.057765841484069824 0.03268163651227951 4.885552883148193 4.9640278816223145"
            enable-background="new 0 0 5 5.05">
            <g>
              <path fill="#0F0F0F"
                d="M0.94,4.26C0.02,3.65-0.21,2.49,0.39,1.72c0.08-0.1,0.18-0.2,0.29-0.27c0.13-0.09,0.25-0.12,0.37-0.11 c0.06,0,0.11,0.02,0.16,0.06C1.08,2.09,1.23,2.85,1.9,3.25C1.54,3.43,1.23,3.03,0.98,2.86c-0.06-0.03-0.1-0.02-0.13,0.02 c-0.3,0.4-0.28,0.79,0.03,1.29C0.89,4.18,0.9,4.2,0.94,4.26z" />
              <path fill="#0F0F0F"
                d="M4.81,1.85c0.38,0.93-0.05,2.31-1.32,2.41C3.21,4.28,3.02,4.18,2.92,3.99C2.91,3.96,2.91,3.93,2.93,3.87 c0.53-0.41,0.68-1.05,0.56-1.69C3.73,2.3,3.76,2.64,3.85,2.89C3.9,3.04,4,3.02,4.09,2.99C4.54,2.84,4.74,2.55,4.8,1.98 C4.8,1.95,4.8,1.92,4.81,1.85z" />
              <path fill="#0F0F0F"
                d="M3.85,4.54c-0.76,0.65-2.2,0.7-2.7-0.47C1.07,3.9,1.06,3.75,1.1,3.62C1.13,3.56,1.16,3.5,1.21,3.45 C1.84,3.7,2.48,3.67,3.09,3.31C3,3.64,2.63,3.83,2.37,3.97c0.05,0.1,0.11,0.19,0.17,0.26C2.82,4.61,3.17,4.7,3.72,4.58 C3.75,4.57,3.78,4.56,3.85,4.54z" />
              <path fill="#0F0F0F"
                d="M2.69,0.04c1.11-0.1,2.03,0.84,1.9,1.89c-0.04,0.32-0.2,0.54-0.43,0.59C4.11,2.54,4.04,2.55,3.98,2.54 C3.82,1.91,3.27,1.45,2.63,1.36c0.21-0.24,0.64-0.09,0.91-0.03c0.02-0.1,0.02-0.19,0.02-0.28C3.55,0.61,3.31,0.29,2.85,0.1 C2.81,0.08,2.76,0.07,2.69,0.04z" />
              <path fill="#0F0F0F"
                d="M0.26,1.54c0.25-1.04,1.3-1.65,2.22-1.33c0.13,0.04,0.26,0.11,0.36,0.2c0.18,0.14,0.26,0.32,0.22,0.5 C3.05,0.94,3.03,0.97,2.97,0.99C2.3,0.96,1.69,1.39,1.5,2.03C1.26,1.88,1.47,1.54,1.54,1.34c0.13-0.22,0.09-0.3,0-0.33 C1.06,0.87,0.69,1.01,0.33,1.46C0.31,1.48,0.3,1.49,0.26,1.54z" />
            </g>
          </svg>
        </svg>
        <defs>
          <filter id="colors1627487011">
            <feColorMatrix type="matrix"
              values="0 0 0 0 0.57421875  0 0 0 0 0.19921875  0 0 0 0 0.9140625  0 0 0 1 0" />
          </filter>
        </defs>
      </g>
    </g>
    <g transform="translate(45.400001525878906,11.820928573608398)">
      <g data-gra="path-name" fill-rule="" stroke="#000000">
        <g transform="scale(1)">
          <g>
            <path
              d="M10.4-0.925L12.65-0.925 12.65 0 0 0 0-0.925 3.81-0.925Q2.46-1.9375 1.68-3.675 0.89-5.4125 0.89-7.6L0.89-7.6Q0.89-10.912500000000001 2.72-13.149999999999999 4.55-15.375 7.35-15.375 10.14-15.375 12.01-12.8L12.01-12.8 10.72-11.0375Q9.86-12.075 9.1-12.475000000000001 8.33-12.887500000000001 7.3-12.887500000000001L7.3-12.887500000000001Q5.48-12.887500000000001 4.24-11.412500000000001 3.01-9.95 3.01-7.6625 3.01-5.375 4.24-3.8375 5.46-2.3000000000000003 7.15-2.3000000000000003L7.15-2.3000000000000003Q8.2-2.3000000000000003 8.95-2.7375 9.71-3.175 10.53-4.1499999999999995L10.53-4.1499999999999995 11.84-2.475Q11.08-1.4375 10.4-0.925L10.4-0.925ZM23.92-0.925L25.58-0.925 25.58 0 21.87 0 19-5.05 16.34-5.05 16.34 0 12.65 0 12.65-0.925 14.31-0.925 14.31-15.0125 18.78-15.0125Q21.53-15.0125 22.71-13.85 23.9-12.6875 23.9-10.1375L23.9-10.1375Q23.9-6.425 21.31-5.45L21.31-5.45 23.92-0.925ZM18.87-7.35Q20.58-7.35 21.2-8.0125 21.82-8.675 21.82-10.149999999999999 21.82-11.625 21.19-12.162500000000001 20.55-12.7125 18.92-12.7125L18.92-12.7125 16.34-12.7125 16.34-7.35 18.87-7.35ZM25.15-0.925L29.48-0.925 29.48-5.925000000000001 25.02-15.0125 27.23-15.0125 30.52-8.1875 33.8-15.0125 36.01-15.0125 31.55-5.925000000000001 31.55-0.925 35.88-0.925 35.88 0 25.15 0 25.15-0.925ZM39.57-0.925L47.63-0.925 47.63 0 35.88 0 35.88-0.925 37.54-0.925 37.54-15.0125 41.67-15.0125Q44.4-15.0125 45.65-13.700000000000001 46.91-12.3875 46.91-9.662500000000001 46.91-6.9375 45.63-5.675 44.35-4.4 41.7-4.4L41.7-4.4 39.57-4.4 39.57-0.925ZM41.92-6.7Q43.61-6.7 44.22-7.512499999999999 44.83-8.3125 44.83-9.875 44.83-11.425 44.05-12.075 43.28-12.7125 41.63-12.7125L41.63-12.7125 39.57-12.7125 39.57-6.7 41.92-6.7ZM53.83-0.925L58.01-0.925 58.01 0 47.63 0 47.63-0.925 51.8-0.925 51.8-12.6875 48.16-12.6875 48.16-15.0125 57.47-15.0125 57.47-12.6875 53.83-12.6875 53.83-0.925ZM68.51-0.925L72.44-0.925 72.44 0 58.01 0 58.01-0.925 61.94-0.925Q60.53-1.9375 59.72-3.7 58.9-5.45 58.9-7.625L58.9-7.625Q58.9-10.9375 60.72-13.149999999999999 62.54-15.375 65.22-15.375 67.9-15.375 69.73-13.149999999999999 71.55-10.9375 71.55-7.625L71.55-7.625Q71.55-5.475 70.73-3.7 69.91-1.9125 68.51-0.925L68.51-0.925ZM68.24-11.475Q67.01-13.0625 65.22-13.0625 63.44-13.0625 62.21-11.475 60.98-9.875 60.98-7.6125 60.98-5.3500000000000005 62.21-3.7624999999999997 63.44-2.175 65.22-2.175 67.01-2.175 68.24-3.7624999999999997 69.47-5.3500000000000005 69.47-7.6125 69.47-9.875 68.24-11.475ZM87.66-0.925L89.33-0.925 89.33 0 85.64 0 85.64-11.725000000000001 81.44-1.3125 80.31-1.3125 76.13-11.725000000000001 76.13 0 72.44 0 72.44-0.925 74.11-0.925 74.11-15.0125 77.27-15.0125 80.89-5.5874999999999995 84.52-15.0125 87.66-15.0125 87.66-0.925ZM101.75-0.925L103.75-0.925 103.75 0 99.91 0 98.71-3.4125 92.7-3.4125 91.49 0 87.66 0 87.66-0.925 89.66-0.925 94.62-15.0125 96.79-15.0125 101.75-0.925ZM93.52-5.75L97.89-5.75 95.7-11.9375 93.52-5.75ZM113.35-0.925L115.02-0.925 115.02 0 111.31 0 108.44-5.05 105.77-5.05 105.77 0 102.08 0 102.08-0.925 103.75-0.925 103.75-15.0125 108.21-15.0125Q110.96-15.0125 112.15-13.85 113.33-12.6875 113.33-10.1375L113.33-10.1375Q113.33-6.425 110.74-5.45L110.74-5.45 113.35-0.925ZM108.3-7.35Q110.02-7.35 110.64-8.0125 111.25-8.675 111.25-10.149999999999999 111.25-11.625 110.62-12.162500000000001 109.98-12.7125 108.35-12.7125L108.35-12.7125 105.77-12.7125 105.77-7.35 108.3-7.35ZM114.59-0.925L116.25-0.925 116.25-15.0125 118.28-15.0125 118.28-7.6875 123.78-15.0125 126.36-15.0125 121.53-8.4375 125.89-0.8999999999999999 125.89-0.925 127.56-0.925 127.56 0 124.02 0 120.03-6.574999999999999 118.28-4.2125 118.28 0 114.59 0 114.59-0.925ZM126.68-0.925L128.35-0.925 128.35-15.0125 136.79-15.0125 136.79-12.625 130.38-12.625 130.38-8.65 136.13-8.65 136.13-6.4 130.38-6.4 130.38-2.3874999999999997 136.99-2.3874999999999997 136.99-0.925 138.66-0.925 138.66 0 126.68 0 126.68-0.925ZM144.12-0.925L148.3-0.925 148.3 0 137.92 0 137.92-0.925 142.1-0.925 142.1-12.6875 138.45-12.6875 138.45-15.0125 147.77-15.0125 147.77-12.6875 144.12-12.6875 144.12-0.925ZM151.99-0.925L160.05-0.925 160.05 0 148.3 0 148.3-0.925 149.97-0.925 149.97-15.0125 154.09-15.0125Q156.82-15.0125 158.08-13.700000000000001 159.33-12.3875 159.33-9.662500000000001 159.33-6.9375 158.05-5.675 156.77-4.4 154.12-4.4L154.12-4.4 151.99-4.4 151.99-0.925ZM154.35-6.7Q156.03-6.7 156.64-7.512499999999999 157.25-8.3125 157.25-9.875 157.25-11.425 156.48-12.075 155.7-12.7125 154.05-12.7125L154.05-12.7125 151.99-12.7125 151.99-6.7 154.35-6.7ZM172.47-0.925L174.47-0.925 174.47 0 170.64 0 169.43-3.4125 163.42-3.4125 162.22 0 158.38 0 158.38-0.925 160.38-0.925 165.34-15.0125 167.51-15.0125 172.47-0.925ZM164.24-5.75L168.61-5.75 166.43-11.9375 164.24-5.75ZM181.98-0.925L183.64-0.925 183.64 0 172.8 0 172.8-0.925 174.47-0.925 174.47-15.0125 176.49-15.0125 176.49-2.4 181.98-2.4 181.98-0.925ZM194.95-0.925L196.94-0.925 196.94 0 193.11 0 191.91-3.4125 185.89-3.4125 184.69 0 180.86 0 180.86-0.925 182.85-0.925 187.82-15.0125 189.98-15.0125 194.95-0.925ZM186.72-5.75L191.08-5.75 188.9-11.9375 186.72-5.75ZM205.67-0.925L207.92-0.925 207.92 0 195.27 0 195.27-0.925 199.09-0.925Q197.73-1.9375 196.95-3.675 196.17-5.4125 196.17-7.6L196.17-7.6Q196.17-10.912500000000001 198-13.149999999999999 199.83-15.375 202.62-15.375 205.41-15.375 207.29-12.8L207.29-12.8 206-11.0375Q205.14-12.075 204.37-12.475000000000001 203.61-12.887500000000001 202.58-12.887500000000001L202.58-12.887500000000001Q200.76-12.887500000000001 199.52-11.412500000000001 198.28-9.95 198.28-7.6625 198.28-5.375 199.51-3.8375 200.74-2.3000000000000003 202.42-2.3000000000000003L202.42-2.3000000000000003Q203.47-2.3000000000000003 204.23-2.7375 204.98-3.175 205.81-4.1499999999999995L205.81-4.1499999999999995 207.11-2.475Q206.36-1.4375 205.67-0.925L205.67-0.925ZM207.92-0.925L209.59-0.925 209.59-15.0125 218.02-15.0125 218.02-12.625 211.62-12.625 211.62-8.65 217.37-8.65 217.37-6.4 211.62-6.4 211.62-2.3874999999999997 218.23-2.3874999999999997 218.23-0.925 219.9-0.925 219.9 0 207.92 0 207.92-0.925Z"
              transform="translate(0, 15.375)" stroke-width="0.2" stroke-linejoin="round" />
          </g>
        </g>
      </g>
    </g>
  </g>
</svg>