<?xml version="1.0" encoding="utf-8"?>
<svg viewBox="0 0 43 43" xmlns="http://www.w3.org/2000/svg">
  <g data-v-0dd9719b="" fill="#000000"
    transform="matrix(0.9887010455131532, 0, 0, 1, -3.5360770225524867, -41.17390823364258)" style="">
    <g transform="matrix(1, 0, 0, 1, 6.122, 43.165)" style="">
      <g>
        <rect fill="#000000" fill-opacity="0" stroke-width="2" x="0" y="0" width="38.39999999999998"
          height="39.0168565012853" />
        <svg filter="url(#colors1627487011)" x="0" y="0" width="38.39999999999998" height="39.0168565012853"
          filtersec="colorsf4272635234" style="overflow: visible;">
          <svg version="1.1" xmlns="http://www.w3.org/2000/svg" x="0px" y="0px"
            viewBox="0.057765841484069824 0.03268163651227951 4.885552883148193 4.9640278816223145"
            enable-background="new 0 0 5 5.05">
            <g>
              <path fill="#0F0F0F"
                d="M0.94,4.26C0.02,3.65-0.21,2.49,0.39,1.72c0.08-0.1,0.18-0.2,0.29-0.27c0.13-0.09,0.25-0.12,0.37-0.11 c0.06,0,0.11,0.02,0.16,0.06C1.08,2.09,1.23,2.85,1.9,3.25C1.54,3.43,1.23,3.03,0.98,2.86c-0.06-0.03-0.1-0.02-0.13,0.02 c-0.3,0.4-0.28,0.79,0.03,1.29C0.89,4.18,0.9,4.2,0.94,4.26z" />
              <path fill="#0F0F0F"
                d="M4.81,1.85c0.38,0.93-0.05,2.31-1.32,2.41C3.21,4.28,3.02,4.18,2.92,3.99C2.91,3.96,2.91,3.93,2.93,3.87 c0.53-0.41,0.68-1.05,0.56-1.69C3.73,2.3,3.76,2.64,3.85,2.89C3.9,3.04,4,3.02,4.09,2.99C4.54,2.84,4.74,2.55,4.8,1.98 C4.8,1.95,4.8,1.92,4.81,1.85z" />
              <path fill="#0F0F0F"
                d="M3.85,4.54c-0.76,0.65-2.2,0.7-2.7-0.47C1.07,3.9,1.06,3.75,1.1,3.62C1.13,3.56,1.16,3.5,1.21,3.45 C1.84,3.7,2.48,3.67,3.09,3.31C3,3.64,2.63,3.83,2.37,3.97c0.05,0.1,0.11,0.19,0.17,0.26C2.82,4.61,3.17,4.7,3.72,4.58 C3.75,4.57,3.78,4.56,3.85,4.54z" />
              <path fill="#0F0F0F"
                d="M2.69,0.04c1.11-0.1,2.03,0.84,1.9,1.89c-0.04,0.32-0.2,0.54-0.43,0.59C4.11,2.54,4.04,2.55,3.98,2.54 C3.82,1.91,3.27,1.45,2.63,1.36c0.21-0.24,0.64-0.09,0.91-0.03c0.02-0.1,0.02-0.19,0.02-0.28C3.55,0.61,3.31,0.29,2.85,0.1 C2.81,0.08,2.76,0.07,2.69,0.04z" />
              <path fill="#0F0F0F"
                d="M0.26,1.54c0.25-1.04,1.3-1.65,2.22-1.33c0.13,0.04,0.26,0.11,0.36,0.2c0.18,0.14,0.26,0.32,0.22,0.5 C3.05,0.94,3.03,0.97,2.97,0.99C2.3,0.96,1.69,1.39,1.5,2.03C1.26,1.88,1.47,1.54,1.54,1.34c0.13-0.22,0.09-0.3,0-0.33 C1.06,0.87,0.69,1.01,0.33,1.46C0.31,1.48,0.3,1.49,0.26,1.54z" />
            </g>
          </svg>
        </svg>
        <defs>
          <filter id="colors1627487011">
            <feColorMatrix type="matrix"
              values="0 0 0 0 0.57421875  0 0 0 0 0.19921875  0 0 0 0 0.9140625  0 0 0 1 0" />
          </filter>
        </defs>
      </g>
    </g>
    <g transform="translate(45.400001525878906,11.820928573608398)">
      <g data-gra="path-name" fill-rule="" stroke="#000000">
        <g transform="scale(1)">
          <g />
        </g>
      </g>
    </g>
  </g>
</svg>